<svg width="168" height="147" viewBox="0 0 168 147" fill="none" xmlns="http://www.w3.org/2000/svg">
<path d="M31.1277 86.4734C26.1152 61.6972 45.0553 38.5417 70.3334 38.5417H96.6666C121.945 38.5417 140.885 61.6973 135.872 86.4734L127.751 126.617C125.486 137.811 115.648 145.858 104.227 145.858H62.7727C51.3524 145.858 41.5138 137.811 39.2493 126.617L31.1277 86.4734Z" fill="#F6D5A9"/>
<ellipse cx="48.1488" cy="48.0994" rx="11.4078" ry="8.41607" fill="#482712"/>
<ellipse cx="16.2071" cy="78.3971" rx="15.971" ry="11.7825" fill="#482712"/>
<path d="M4.79922 69.9812L39.0227 43.0498L59.2778 49.9583L40.6332 111.038L4.79922 69.9812Z" fill="#482712"/>
<path d="M0.515164 107.042L0.236115 78.3972L30.036 84.2083L40.6332 106.471L0.515164 107.042Z" fill="#482712"/>
<ellipse cx="20.953" cy="107.042" rx="20.4375" ry="14.8417" fill="#482712"/>
<ellipse rx="11.4078" ry="8.41607" transform="matrix(-1 0 0 1 119.13 48.0994)" fill="#482712"/>
<ellipse rx="15.971" ry="11.7825" transform="matrix(-1 0 0 1 151.072 78.3971)" fill="#482712"/>
<path d="M162.479 69.9812L128.256 43.0498L108.001 49.9583L126.645 111.038L162.479 69.9812Z" fill="#482712"/>
<path d="M166.764 107.042L167.043 78.3972L137.243 84.2083L126.645 106.471L166.764 107.042Z" fill="#482712"/>
<ellipse rx="20.4375" ry="14.8417" transform="matrix(-1 0 0 1 146.326 107.042)" fill="#482712"/>
<ellipse cx="63.0625" cy="92.2" rx="4.54167" ry="3.425" fill="black"/>
<ellipse cx="102.424" cy="92.2" rx="4.54167" ry="3.425" fill="black"/>
<path d="M83.5 121V129" stroke="black"/>
<path d="M72.5 125C72.5 130 80.1452 132.143 83.5 129" stroke="black"/>
<path d="M94.5 125C94.5 130 87.1129 132.143 83.5 129" stroke="black"/>
<ellipse cx="83.5" cy="120" rx="8" ry="5" fill="black"/>
</svg>
