<svg width="61.33" height="62.5" viewBox="0 0 92 75" fill="none" xmlns="http://www.w3.org/2000/svg">
<path fill-rule="evenodd" clip-rule="evenodd" d="M48.8333 6.25V26.125L48.8333 26.1794C48.8332 26.6035 48.8332 27.0156 48.8789 27.3555C48.9304 27.7387 49.0559 28.176 49.4191 28.5392C49.7823 28.9024 50.2196 29.028 50.6028 29.0795C50.9427 29.1252 51.3549 29.1251 51.7789 29.125L51.8333 29.125H76.6667V50C76.6667 58.8388 76.6667 63.2583 73.2984 66.0041C69.9301 68.75 64.509 68.75 53.6667 68.75H38.3333C27.491 68.75 22.0699 68.75 18.7016 66.0041C15.3333 63.2583 15.3333 58.8388 15.3333 50V25C15.3333 16.1612 15.3333 11.7417 18.7016 8.99587C22.0699 6.25 27.491 6.25 38.3333 6.25H48.8333ZM50.8333 6.25V26.125C50.8333 26.6247 50.8355 26.8988 50.861 27.089L50.862 27.0963L50.8693 27.0973C51.0595 27.1229 51.3337 27.125 51.8333 27.125H76.6667V27.0527C76.6667 24.498 76.6667 23.2206 76.0831 22.0721C75.4995 20.9235 74.3915 20.0203 72.1756 18.2138L61.991 9.91117C59.7751 8.10473 58.6672 7.20151 57.2583 6.72575C55.8494 6.25 54.2825 6.25 51.1487 6.25H50.8333Z" fill="white"/>
</svg>
